<?xml version="1.0" encoding="iso-8859-1"?>
<!-- Generator: Adobe Illustrator 19.0.0, SVG Export Plug-In . SVG Version: 6.00 Build 0)  -->
<svg version="1.1" id="Layer_1" xmlns="http://www.w3.org/2000/svg" xmlns:xlink="http://www.w3.org/1999/xlink" x="0px" y="0px"
	 viewBox="0 0 594.179 181.239" style="enable-background:new 0 0 594.179 181.239;" xml:space="preserve">
<g id="XMLID_78_">
	<defs>
		<rect id="XMLID_32_" x="-7.769" y="0" width="113.191" height="158.833"/>
	</defs>
	<clipPath id="XMLID_88_">
		<use xlink:href="#XMLID_32_"  style="overflow:visible;"/>
	</clipPath>
	<rect id="XMLID_39_" x="5.801" y="96.326" style="clip-path:url(#XMLID_88_);" width="5.093" height="5.07"/>
	<path id="XMLID_38_" style="clip-path:url(#XMLID_88_);" d="M10.893,119.139v-12.674H5.8v12.674
		c0.002,3.511,0.429,6.97,1.28,10.377c0.851,3.407,2.102,6.662,3.751,9.765c1.65,3.103,3.651,5.963,6.002,8.579
		c2.352,2.616,4.985,4.913,7.9,6.889l2.872-4.187c-2.573-1.744-4.897-3.77-6.973-6.078c-2.076-2.309-3.842-4.832-5.298-7.57
		c-1.456-2.738-2.56-5.61-3.312-8.617C11.272,125.29,10.895,122.238,10.893,119.139z"/>
	<path id="XMLID_80_" style="clip-path:url(#XMLID_88_);" d="M89.832,76.048c-0.001,0.504-0.098,0.989-0.292,1.454
		c-0.194,0.466-0.47,0.877-0.828,1.233c-0.358,0.356-0.771,0.631-1.239,0.824c-0.468,0.193-0.955,0.29-1.461,0.29
		c-1.181,0.001-2.318,0.227-3.409,0.678c-1.091,0.451-2.055,1.092-2.89,1.923c-0.835,0.832-1.479,1.791-1.932,2.877
		c-0.453,1.086-0.68,2.217-0.681,3.394v30.418c-0.002,1.723-0.163,3.432-0.483,5.126c-0.32,1.694-0.794,3.344-1.421,4.95
		c-0.627,1.606-1.397,3.142-2.31,4.607c-0.913,1.465-1.953,2.833-3.12,4.106c-1.167,1.273-2.442,2.428-3.824,3.466
		c-1.382,1.038-2.848,1.941-4.399,2.708c-1.55,0.768-3.158,1.387-4.823,1.858c-1.665,0.471-3.36,0.786-5.084,0.945v-5.096
		c1.388-0.156,2.751-0.436,4.087-0.84c1.337-0.404,2.626-0.925,3.867-1.563c1.241-0.638,2.414-1.383,3.519-2.234
		c1.105-0.851,2.122-1.795,3.054-2.832c0.931-1.036,1.761-2.148,2.488-3.336c0.727-1.187,1.341-2.43,1.84-3.729
		c0.499-1.299,0.876-2.632,1.131-3.999c0.255-1.367,0.383-2.746,0.385-4.137V98.861h-5.093v20.278
		c-0.001,1.058-0.097,2.107-0.287,3.148c-0.19,1.041-0.47,2.057-0.842,3.047c-0.372,0.991-0.829,1.941-1.371,2.851
		c-0.542,0.91-1.161,1.764-1.857,2.564c-0.696,0.8-1.457,1.531-2.284,2.196c-0.827,0.664-1.707,1.25-2.639,1.758
		c-0.932,0.508-1.902,0.929-2.91,1.265c-1.008,0.335-2.037,0.579-3.089,0.732v-5.139c1.437-0.294,2.783-0.819,4.038-1.576
		c1.255-0.756,2.346-1.7,3.274-2.831c0.928-1.131,1.638-2.385,2.131-3.76c0.493-1.375,0.741-2.793,0.742-4.254V86.187h-5.093v32.952
		c-0.001,0.786-0.121,1.553-0.361,2.302c-0.24,0.749-0.587,1.444-1.043,2.086c-0.456,0.642-0.999,1.2-1.628,1.674
		c-0.629,0.474-1.316,0.843-2.06,1.106V45.63c0.001-0.504,0.098-0.989,0.292-1.454c0.194-0.466,0.47-0.877,0.828-1.233
		c0.358-0.356,0.771-0.631,1.239-0.824c0.468-0.193,0.955-0.29,1.461-0.29h2.546c0.506,0.001,0.993,0.097,1.461,0.29
		c0.468,0.193,0.881,0.468,1.239,0.824c0.358,0.356,0.634,0.767,0.828,1.233c0.194,0.466,0.291,0.95,0.292,1.454
		c0.001,1.176,0.228,2.307,0.681,3.394c0.453,1.086,1.097,2.045,1.932,2.877c0.835,0.832,1.799,1.473,2.89,1.923
		c1.091,0.451,2.228,0.677,3.409,0.678h2.546c0.506,0.001,0.993,0.097,1.461,0.291c0.468,0.193,0.881,0.468,1.239,0.824
		c0.358,0.356,0.634,0.767,0.828,1.233s0.291,0.95,0.292,1.454v2.535c0.001,1.176,0.228,2.307,0.681,3.394
		c0.453,1.086,1.097,2.045,1.932,2.877c0.835,0.832,1.799,1.473,2.89,1.923c1.091,0.451,2.228,0.677,3.409,0.678
		c0.506,0.001,0.993,0.097,1.461,0.291c0.468,0.193,0.881,0.468,1.239,0.824c0.358,0.356,0.634,0.767,0.828,1.233
		c0.194,0.466,0.291,0.95,0.292,1.454V76.048z M21.078,119.139V79.85c-0.001-1.176-0.228-2.307-0.681-3.394
		c-0.453-1.086-1.097-2.045-1.932-2.877c-0.835-0.832-1.799-1.473-2.89-1.923c-1.091-0.451-2.228-0.677-3.409-0.678
		c-0.506-0.001-0.993-0.097-1.461-0.291c-0.468-0.193-0.881-0.468-1.239-0.824c-0.358-0.356-0.634-0.767-0.828-1.233
		c-0.194-0.466-0.291-0.95-0.292-1.454v-2.535c0.001-0.504,0.098-0.989,0.292-1.454c0.194-0.466,0.47-0.877,0.828-1.233
		c0.358-0.356,0.771-0.631,1.239-0.824c0.468-0.193,0.955-0.29,1.461-0.291c1.181-0.001,2.318-0.227,3.409-0.678
		c1.091-0.451,2.055-1.092,2.89-1.923c0.835-0.832,1.48-1.791,1.932-2.877c0.453-1.086,0.68-2.217,0.681-3.394v-2.535
		c0.001-0.504,0.098-0.989,0.292-1.454c0.194-0.466,0.47-0.877,0.828-1.233c0.358-0.356,0.771-0.631,1.239-0.824
		c0.468-0.193,0.955-0.29,1.461-0.291h2.546c1.181-0.001,2.318-0.227,3.409-0.678c1.091-0.451,2.055-1.092,2.89-1.923
		c0.835-0.832,1.479-1.791,1.932-2.877c0.453-1.086,0.68-2.217,0.681-3.393c0.001-0.504,0.098-0.989,0.292-1.454
		c0.194-0.466,0.47-0.877,0.828-1.233c0.358-0.356,0.771-0.631,1.239-0.824c0.468-0.193,0.955-0.29,1.461-0.291h2.546
		c0.506,0.001,0.993,0.097,1.461,0.291c0.468,0.193,0.881,0.468,1.239,0.824c0.358,0.356,0.634,0.767,0.828,1.233
		c0.194,0.466,0.291,0.95,0.292,1.454v89.55c-0.744-0.263-1.431-0.632-2.061-1.106c-0.63-0.475-1.172-1.033-1.628-1.675
		c-0.456-0.642-0.804-1.337-1.043-2.086c-0.24-0.749-0.36-1.517-0.361-2.303V86.187h-5.093v32.952
		c0.002,1.46,0.249,2.878,0.742,4.254c0.493,1.375,1.204,2.629,2.131,3.76c0.928,1.131,2.019,2.075,3.274,2.832
		c1.255,0.756,2.601,1.282,4.038,1.576v5.141c-1.052-0.152-2.081-0.396-3.089-0.732c-1.008-0.335-1.978-0.757-2.91-1.265
		c-0.932-0.508-1.812-1.094-2.639-1.758c-0.827-0.664-1.588-1.396-2.284-2.196c-0.696-0.8-1.315-1.654-1.857-2.564
		c-0.542-0.91-0.999-1.86-1.371-2.851c-0.372-0.991-0.653-2.007-0.842-3.048c-0.19-1.041-0.285-2.09-0.286-3.148V98.861h-5.093
		v20.278c0.002,1.391,0.13,2.769,0.385,4.137c0.255,1.367,0.632,2.7,1.131,3.999c0.499,1.299,1.113,2.542,1.84,3.729
		c0.727,1.187,1.557,2.299,2.488,3.335c0.931,1.036,1.949,1.98,3.054,2.832c1.105,0.851,2.277,1.596,3.519,2.234
		c1.241,0.638,2.53,1.159,3.867,1.563c1.337,0.404,2.699,0.684,4.087,0.84v5.1c-1.724-0.159-3.419-0.474-5.084-0.945
		c-1.665-0.471-3.273-1.091-4.824-1.858c-1.55-0.768-3.017-1.67-4.399-2.708c-1.382-1.038-2.657-2.193-3.824-3.466
		c-1.167-1.273-2.207-2.642-3.12-4.107s-1.682-3-2.309-4.607c-0.627-1.607-1.1-3.257-1.42-4.951
		C21.241,122.572,21.08,120.863,21.078,119.139z M5.803,46.895c0-0.503,0.097-0.988,0.291-1.453
		c0.194-0.465,0.469-0.876,0.827-1.232c0.358-0.356,0.77-0.631,1.237-0.824c0.467-0.193,0.954-0.29,1.459-0.29h0.005
		c1.181-0.001,2.318-0.227,3.409-0.678s2.055-1.092,2.89-1.923c0.835-0.832,1.48-1.791,1.932-2.877
		c0.453-1.086,0.68-2.218,0.681-3.394v-2.536c0.001-0.504,0.098-0.989,0.292-1.454c0.194-0.466,0.47-0.876,0.828-1.233
		c0.358-0.356,0.771-0.631,1.238-0.824c0.468-0.193,0.955-0.29,1.461-0.291l2.546,0.002c1.182,0,2.319-0.225,3.411-0.676
		c1.092-0.45,2.056-1.092,2.892-1.924c0.836-0.832,1.48-1.792,1.932-2.879c0.452-1.087,0.678-2.219,0.678-3.396
		c-0.001-0.504,0.096-0.989,0.289-1.455c0.194-0.466,0.469-0.877,0.827-1.233c0.358-0.356,0.771-0.631,1.239-0.824
		c0.468-0.193,0.955-0.288,1.462-0.288h0.003l5.093-0.002c0.506,0,0.993,0.097,1.461,0.29c0.468,0.193,0.881,0.468,1.239,0.824
		c0.358,0.356,0.634,0.767,0.828,1.233s0.291,0.95,0.292,1.454l-0.003,9.73c-1.208-0.573-2.481-0.859-3.82-0.858h-2.546
		c-1.181,0.001-2.318,0.227-3.409,0.678c-1.091,0.451-2.055,1.092-2.89,1.923c-0.835,0.832-1.479,1.791-1.932,2.877
		c-0.453,1.086-0.68,2.217-0.681,3.394c-0.001,0.504-0.098,0.989-0.292,1.454c-0.194,0.466-0.47,0.877-0.828,1.233
		c-0.358,0.356-0.771,0.631-1.239,0.824c-0.468,0.193-0.955,0.29-1.461,0.291h-2.546c-1.181,0.001-2.318,0.227-3.409,0.678
		c-1.091,0.451-2.055,1.092-2.89,1.923c-0.835,0.832-1.48,1.791-1.932,2.877c-0.453,1.086-0.68,2.218-0.681,3.394v2.535
		c-0.001,0.504-0.098,0.989-0.292,1.454s-0.47,0.877-0.828,1.233c-0.358,0.356-0.771,0.631-1.239,0.824
		c-0.468,0.193-0.955,0.29-1.461,0.291c-2.302-0.002-4.302,0.771-6,2.317c-0.243-0.753-0.365-1.526-0.366-2.317L5.803,46.895z
		 M55.455,22.817l5.093,0.002c0.506,0,0.993,0.097,1.46,0.29c0.468,0.193,0.88,0.467,1.238,0.823
		c0.358,0.356,0.634,0.767,0.828,1.232c0.194,0.465,0.292,0.95,0.293,1.453c-0.001,1.177,0.225,2.31,0.678,3.397
		c0.452,1.088,1.097,2.048,1.933,2.88c0.836,0.832,1.801,1.474,2.893,1.924c1.093,0.45,2.23,0.675,3.413,0.675l2.543-0.003
		c0.506,0.001,0.993,0.098,1.461,0.291c0.468,0.193,0.88,0.468,1.239,0.824c0.358,0.356,0.634,0.767,0.828,1.233
		c0.194,0.466,0.291,0.95,0.292,1.454v2.535c0.002,1.176,0.229,2.307,0.682,3.393c0.453,1.086,1.097,2.045,1.932,2.877
		c0.835,0.832,1.799,1.473,2.89,1.923c1.091,0.451,2.227,0.677,3.409,0.678c0.507,0,0.994,0.096,1.462,0.288
		c0.468,0.193,0.881,0.467,1.24,0.824c0.358,0.357,0.634,0.768,0.828,1.234c0.194,0.466,0.29,0.951,0.29,1.456v8.875
		c0.004,1.144-0.241,2.232-0.735,3.265c-1.637-1.336-3.514-2.003-5.631-2.001c-0.506-0.001-0.993-0.097-1.461-0.291
		c-0.468-0.193-0.881-0.468-1.239-0.824c-0.358-0.356-0.634-0.767-0.828-1.233c-0.194-0.466-0.291-0.95-0.292-1.454v-2.535
		c-0.001-1.176-0.228-2.307-0.681-3.394c-0.453-1.086-1.097-2.045-1.932-2.877c-0.835-0.832-1.799-1.473-2.89-1.923
		c-1.091-0.451-2.228-0.677-3.409-0.678h-2.546c-0.506-0.001-0.993-0.097-1.461-0.291c-0.468-0.193-0.881-0.468-1.239-0.824
		c-0.358-0.356-0.634-0.767-0.828-1.233c-0.194-0.466-0.291-0.95-0.292-1.454c-0.001-1.176-0.228-2.307-0.681-3.394
		c-0.453-1.086-1.097-2.045-1.932-2.877c-0.835-0.832-1.799-1.473-2.89-1.923c-1.091-0.451-2.228-0.677-3.409-0.678h-2.546
		c-1.338-0.001-2.612,0.284-3.82,0.858V26.577c0.006-0.5,0.108-0.981,0.305-1.441c0.197-0.46,0.474-0.867,0.831-1.218
		c0.357-0.352,0.768-0.623,1.233-0.813C54.469,22.913,54.952,22.818,55.455,22.817z M97.471,54.502c0-1.177-0.225-2.308-0.678-3.396
		c-0.452-1.087-1.096-2.047-1.932-2.879c-0.836-0.832-1.8-1.473-2.892-1.923c-1.092-0.45-2.229-0.675-3.411-0.674
		c-0.506-0.001-0.993-0.098-1.461-0.291c-0.468-0.193-0.88-0.468-1.238-0.824c-0.358-0.356-0.634-0.767-0.828-1.233
		c-0.194-0.466-0.291-0.95-0.292-1.454l0.002-2.535c-0.002-1.176-0.229-2.307-0.682-3.394c-0.453-1.086-1.097-2.045-1.933-2.877
		c-0.836-0.832-1.799-1.473-2.891-1.923c-1.091-0.451-2.228-0.677-3.409-0.678l-2.546,0.002c-0.507,0-0.994-0.096-1.462-0.289
		c-0.468-0.193-0.881-0.468-1.239-0.824c-0.358-0.357-0.634-0.768-0.828-1.234c-0.194-0.466-0.291-0.951-0.291-1.455
		c-0.001-1.176-0.228-2.307-0.681-3.393c-0.453-1.086-1.096-2.045-1.932-2.877s-1.798-1.473-2.889-1.924
		c-1.091-0.451-2.227-0.677-3.409-0.678l-5.095-0.002c-1.342-0.001-2.618,0.286-3.829,0.863c-0.054-1.14-0.318-2.229-0.793-3.267
		c-0.475-1.038-1.127-1.952-1.956-2.74c-0.829-0.788-1.775-1.395-2.839-1.82c-1.064-0.425-2.169-0.638-3.315-0.64l-5.091,0.002
		h-0.006c-1.181,0-2.318,0.225-3.409,0.675c-1.091,0.45-2.055,1.091-2.89,1.922c-0.835,0.832-1.479,1.791-1.931,2.877
		c-0.452,1.087-0.678,2.218-0.677,3.394c0.001,0.505-0.096,0.99-0.289,1.456c-0.194,0.466-0.469,0.878-0.828,1.235
		c-0.358,0.357-0.771,0.632-1.24,0.825c-0.468,0.193-0.956,0.29-1.463,0.29l-2.546-0.002c-1.181,0.001-2.318,0.228-3.409,0.678
		c-1.091,0.451-2.054,1.092-2.89,1.923c-0.835,0.832-1.479,1.79-1.932,2.877c-0.453,1.086-0.68,2.217-0.681,3.393v2.536
		c0,0.504-0.097,0.988-0.291,1.454c-0.194,0.465-0.469,0.876-0.827,1.233c-0.358,0.356-0.77,0.631-1.237,0.825
		c-0.467,0.193-0.954,0.29-1.46,0.291H9.614c-1.181,0.001-2.317,0.227-3.408,0.677c-1.091,0.451-2.054,1.092-2.889,1.924
		c-0.835,0.832-1.478,1.791-1.929,2.878c-0.452,1.087-0.677,2.218-0.677,3.393l-0.004,8.87c-0.006,2.867,0.87,5.435,2.627,7.706
		c-0.052,0.387-0.079,0.775-0.08,1.165v2.535c0.001,1.176,0.228,2.307,0.681,3.394c0.453,1.086,1.097,2.045,1.932,2.877
		c0.835,0.832,1.799,1.473,2.89,1.923c1.091,0.451,2.228,0.677,3.409,0.678c0.506,0.001,0.993,0.097,1.461,0.291
		c0.468,0.193,0.881,0.468,1.239,0.824c0.358,0.356,0.634,0.767,0.828,1.233c0.194,0.466,0.291,0.95,0.292,1.454v39.289
		c0,2.164,0.212,4.307,0.636,6.429c0.424,2.122,1.052,4.183,1.884,6.182c0.832,1.999,1.851,3.898,3.059,5.697
		c1.208,1.799,2.58,3.464,4.117,4.994c1.537,1.53,3.209,2.896,5.016,4.098c1.807,1.202,3.715,2.217,5.723,3.045
		c2.008,0.828,4.078,1.453,6.21,1.875c2.132,0.422,4.285,0.633,6.458,0.633c2.174,0,4.326-0.211,6.458-0.633
		c2.132-0.422,4.202-1.047,6.21-1.875s3.916-1.843,5.723-3.045c1.807-1.202,3.479-2.568,5.016-4.098
		c1.537-1.53,2.909-3.194,4.117-4.994c1.208-1.799,2.227-3.698,3.059-5.697c0.832-1.999,1.46-4.06,1.884-6.182
		c0.424-2.122,0.636-4.265,0.636-6.429V88.722c0.001-0.504,0.098-0.989,0.292-1.454c0.194-0.466,0.47-0.877,0.828-1.233
		c0.358-0.356,0.771-0.631,1.239-0.824c0.468-0.193,0.955-0.29,1.461-0.291c1.181-0.001,2.318-0.227,3.409-0.678
		c1.091-0.451,2.055-1.092,2.89-1.923c0.835-0.832,1.48-1.791,1.932-2.877c0.453-1.086,0.68-2.217,0.681-3.394v-2.535
		c0-0.742-0.092-1.473-0.276-2.193c1.877-2.319,2.818-4.968,2.822-7.947V54.502z"/>
</g>
<path id="XMLID_31_" style="fill:#FF5757;" d="M144.542,72.379h-16.684c-1.912,0-3.65,0.695-5.04,2.085l-25.721,25.721H88.93V72.379
	H75.027v69.515H88.93v-27.806h8.168l25.721,25.721c1.39,1.39,3.128,2.085,5.04,2.085h16.684v-13.903h-13.903l-20.855-20.855
	l20.855-20.855h13.903V72.379z"/>
<polygon id="XMLID_30_" style="fill:#FF5757;" points="227.526,141.895 227.526,127.991 199.72,127.991 199.72,86.282 
	227.526,86.282 227.526,72.379 158.01,72.379 158.01,86.282 185.817,86.282 185.817,127.991 158.01,127.991 158.01,141.895 "/>
<path id="XMLID_29_" style="fill:#FF5757;" d="M254.897,72.379c-7.647,0-13.903,6.256-13.903,13.903v55.612h13.903V86.282h13.903
	v55.612h13.903V86.282h13.903v55.612h13.903V86.282c0-7.647-6.256-13.903-13.903-13.903H254.897z"/>
<path id="XMLID_28_" style="fill:#FF5757;" d="M393.494,141.895v-13.903h-55.612V86.282h55.612V72.379h-55.612
	c-7.647,0-13.903,6.256-13.903,13.903v41.709c0,7.647,6.256,13.903,13.903,13.903H393.494z"/>
<polygon id="XMLID_27_" style="fill:#FF5757;" points="462.575,100.185 420.865,100.185 420.865,72.379 406.962,72.379 
	406.962,141.895 420.865,141.895 420.865,114.088 462.575,114.088 462.575,141.895 476.478,141.895 476.478,72.379 462.575,72.379 
	"/>
<polygon id="XMLID_26_" style="fill:#FF5757;" points="559.462,141.895 559.462,127.991 531.655,127.991 531.655,86.282 
	559.462,86.282 559.462,72.379 489.946,72.379 489.946,86.282 517.752,86.282 517.752,127.991 489.946,127.991 489.946,141.895 "/>
<path id="XMLID_69_" style="fill:#FF5757;" d="M281.531,167.338c-0.083-3.086-2.586-5.56-5.561-5.56h-13.901v19.462h13.901
	c3.114,0,5.561-2.613,5.561-5.561V167.338z M278.751,175.679c0,1.529-1.251,2.78-2.78,2.78h-11.121v-13.901h11.121
	c1.529,0,2.78,1.251,2.78,2.78V175.679z"/>
<rect id="XMLID_23_" x="284.033" y="161.777" style="fill:#FF5757;" width="2.78" height="19.462"/>
<path id="XMLID_22_" style="fill:#FF5757;" d="M297.657,172.899h8.341v2.78c0,1.529-1.251,2.78-2.78,2.78h-8.341
	c-1.529,0-2.78-1.251-2.78-2.78v-8.341c0-1.529,1.251-2.78,2.78-2.78h8.341c1.529,0,2.78,1.251,2.78,2.78h2.78
	c-0.083-3.086-2.586-5.56-5.56-5.56h-8.341c-3.114,0-5.561,2.613-5.561,5.56v8.341c0,3.142,2.586,5.561,5.561,5.561h8.341
	c3.114,0,5.56-2.613,5.56-5.561v-5.56h-11.121V172.899z"/>
<rect id="XMLID_21_" x="311.28" y="161.777" style="fill:#FF5757;" width="2.78" height="19.462"/>
<polygon id="XMLID_20_" style="fill:#FF5757;" points="334.912,164.558 334.912,161.777 315.45,161.777 315.45,164.558 
	323.791,164.558 323.791,181.239 326.572,181.239 326.572,164.558 "/>
<path id="XMLID_62_" style="fill:#FF5757;" d="M355.764,167.338c-0.083-3.086-2.586-5.56-5.561-5.56h-8.341
	c-3.114,0-5.561,2.613-5.561,5.56v13.901h2.78v-5.561h13.901v5.561h2.78V167.338z M350.204,164.558c1.529,0,2.78,1.251,2.78,2.78
	v5.561h-13.901v-5.561c0-1.529,1.251-2.78,2.78-2.78H350.204z"/>
<polygon id="XMLID_17_" style="fill:#FF5757;" points="361.325,161.777 358.545,161.777 358.545,181.239 378.007,181.239 
	378.007,178.459 361.325,178.459 "/>
<polygon id="XMLID_16_" style="fill:#FF5757;" points="393.298,164.558 409.98,164.558 409.98,161.777 390.518,161.777 
	390.518,181.239 393.298,181.239 393.298,172.899 407.199,172.899 407.199,170.118 393.298,170.118 "/>
<polygon id="XMLID_15_" style="fill:#FF5757;" points="414.706,164.558 431.388,164.558 431.388,161.777 411.926,161.777 
	411.926,181.239 431.388,181.239 431.388,178.459 414.706,178.459 414.706,172.899 428.608,172.899 428.608,170.118 
	414.706,170.118 "/>
<path id="XMLID_56_" style="fill:#FF5757;" d="M453.074,167.338c-0.083-3.086-2.586-5.56-5.561-5.56h-8.341
	c-3.114,0-5.561,2.613-5.561,5.56v13.901h2.78v-5.561h13.901v5.561h2.78V167.338z M447.513,164.558c1.529,0,2.78,1.251,2.78,2.78
	v5.561h-13.901v-5.561c0-1.529,1.251-2.78,2.78-2.78H447.513z"/>
<polygon id="XMLID_12_" style="fill:#FF5757;" points="473.926,164.558 473.926,161.777 454.464,161.777 454.464,164.558 
	462.805,164.558 462.805,181.239 465.585,181.239 465.585,164.558 "/>
<path id="XMLID_11_" style="fill:#FF5757;" d="M491.998,175.679c0,1.529-1.251,2.78-2.78,2.78h-8.341c-1.529,0-2.78-1.251-2.78-2.78
	v-13.901h-2.78v13.901c0,3.142,2.586,5.561,5.56,5.561h8.341c3.114,0,5.56-2.613,5.56-5.561v-13.901h-2.78V175.679z"/>
<path id="XMLID_51_" style="fill:#FF5757;" d="M517.02,181.239v-1.974l-3.865-3.865c2.308-0.778,3.865-2.919,3.865-5.282v-2.78
	c0-3.086-2.641-5.56-5.561-5.56h-13.901v19.462h2.78v-5.561h9.147l5.561,5.561H517.02z M514.24,170.118
	c0,1.529-1.251,2.78-2.78,2.78h-11.121v-8.341h11.121c1.529,0,2.78,1.251,2.78,2.78V170.118z"/>
<polygon id="XMLID_8_" style="fill:#FF5757;" points="522.303,164.558 538.985,164.558 538.985,161.777 519.523,161.777 
	519.523,181.239 538.985,181.239 538.985,178.459 522.303,178.459 522.303,172.899 536.204,172.899 536.204,170.118 
	522.303,170.118 "/>
<path id="XMLID_7_" style="fill:#FF5757;" d="M560.393,175.679c0-3.086-2.641-5.56-5.561-5.56h-8.341c-1.529,0-2.78-1.251-2.78-2.78
	c0-1.529,1.251-2.78,2.78-2.78h8.341c1.529,0,2.78,1.251,2.78,2.78h2.78c-0.083-3.086-2.586-5.56-5.561-5.56h-8.341
	c-3.114,0-5.561,2.613-5.561,5.56c0,3.142,2.586,5.561,5.561,5.561h8.341c1.529,0,2.78,1.251,2.78,2.78
	c0,1.529-1.251,2.78-2.78,2.78h-8.341c-1.529,0-2.78-1.251-2.78-2.78h-2.78c0.083,3.142,2.53,5.561,5.561,5.561h8.341
	C557.946,181.239,560.393,178.626,560.393,175.679z"/>
<path id="XMLID_44_" style="fill:#FF5757;" d="M590.988,22.835v19.73h3.191v-19.73H590.988z M571.609,57.235h22.57V44.238h-22.57
	V57.235z M574.722,46.767h16.305v7.9h-16.305V46.767z M567.756,25.053v2.607h12.647c-0.623,5.915-5.954,10.507-14.476,12.725
	l1.284,2.529c10.196-2.724,16.616-8.95,16.616-17.862H567.756z"/>
<path id="XMLID_41_" style="fill:#FF5757;" d="M590.91,69.162v34.906h3.23V69.162H590.91z M578.38,77.801h7.977v-2.568h-7.939
	v-5.409h-3.23v5.409h-8.055v2.568h8.094v2.685c0,6.11-3.853,11.986-9.028,14.437l1.79,2.413c4.008-1.946,7.316-5.915,8.872-10.779
	c1.596,4.592,4.903,8.367,8.911,10.196l1.79-2.491c-5.215-2.257-9.184-7.939-9.184-13.776V77.801z"/>
</svg>
