<?xml version="1.0" encoding="UTF-8" standalone="no"?>
<svg
   xmlns:dc="http://purl.org/dc/elements/1.1/"
   xmlns:cc="http://creativecommons.org/ns#"
   xmlns:rdf="http://www.w3.org/1999/02/22-rdf-syntax-ns#"
   xmlns:svg="http://www.w3.org/2000/svg"
   xmlns="http://www.w3.org/2000/svg"
   xmlns:sodipodi="http://sodipodi.sourceforge.net/DTD/sodipodi-0.dtd"
   xmlns:inkscape="http://www.inkscape.org/namespaces/inkscape"
   sodipodi:docname="recsyslogo_image.svg"
   inkscape:version="1.0 (4035a4fb49, 2020-05-01)"
   id="svg8"
   version="1.1"
   viewBox="0 0 275.24628 64.552315"
   height="64.552315mm"
   width="275.24628mm">
  <defs
     id="defs2" />
  <sodipodi:namedview
     inkscape:window-maximized="1"
     inkscape:window-y="-8"
     inkscape:window-x="-8"
     inkscape:window-height="1537"
     inkscape:window-width="3840"
     showgrid="false"
     inkscape:document-rotation="0"
     inkscape:current-layer="text849"
     inkscape:document-units="mm"
     inkscape:cy="74.520226"
     inkscape:cx="439.60597"
     inkscape:zoom="0.7"
     inkscape:pageshadow="2"
     inkscape:pageopacity="0.0"
     borderopacity="1.0"
     bordercolor="#666666"
     pagecolor="#ffffff"
     id="base" />
  <metadata
     id="metadata5">
    <rdf:RDF>
      <cc:Work
         rdf:about="">
        <dc:format>image/svg+xml</dc:format>
        <dc:type
           rdf:resource="http://purl.org/dc/dcmitype/StillImage" />
        <dc:title></dc:title>
      </cc:Work>
    </rdf:RDF>
  </metadata>
  <g
     transform="translate(85.663107,-25.307485)"
     id="layer1"
     inkscape:groupmode="layer"
     inkscape:label="Layer 1">
    <circle
       r="6.3912034"
       cy="82.218597"
       cx="-60.873699"
       id="path851"
       style="opacity:1;fill:none;fill-opacity:0.548387;stroke:#4c7295;stroke-width:2.5;stroke-linecap:square;stroke-miterlimit:4;stroke-dasharray:none;stroke-opacity:1" />
    <g
       style="font-weight:600;font-size:53.5238px;line-height:1.25;font-family:Montserrat;-inkscape-font-specification:'Montserrat Semi-Bold';stroke-width:0.264583"
       id="text849"
       aria-label="RecSys">
      <path
         id="path890"
         style="stroke-width:0.264583"
         d="M 25.902367,76.250931 18.248463,65.278552 q -0.481714,0.05352 -1.445142,0.05352 H 8.3465604 V 76.250931 H 1.3884664 V 38.784271 H 16.803321 q 4.870666,0 8.45676,1.605714 3.639619,1.605714 5.566475,4.603047 1.926857,2.997332 1.926857,7.118665 0,4.22838 -2.087428,7.279237 -2.033904,3.050856 -5.887618,4.549523 l 8.617332,12.310474 z M 25.741795,52.111697 q 0,-3.586095 -2.355047,-5.512951 -2.355047,-1.926857 -6.90457,-1.926857 H 8.3465604 v 14.93314 h 8.1356176 q 4.549523,0 6.90457,-1.926857 2.355047,-1.98038 2.355047,-5.566475 z" />
      <path
         id="path892"
         style="stroke-width:0.264583"
         d="m 66.71259,62.120648 q 0,0.695809 -0.107048,1.98038 H 44.17907 q 0.588762,3.157904 3.050857,5.031237 2.515619,1.81981 6.208761,1.81981 4.710094,0 7.760951,-3.104381 l 3.586094,4.121333 q -1.926857,2.301523 -4.870666,3.479047 -2.943809,1.177523 -6.636951,1.177523 -4.710094,0 -8.296189,-1.873333 -3.586094,-1.873333 -5.566475,-5.191808 -1.926857,-3.372 -1.926857,-7.60038 0,-4.174856 1.873333,-7.493332 1.926857,-3.371999 5.298857,-5.245332 3.371999,-1.873333 7.600379,-1.873333 4.174856,0 7.439808,1.873333 3.318476,1.819809 5.138285,5.191808 1.873333,3.318476 1.873333,7.707428 z M 52.261164,52.700459 q -3.211428,0 -5.459427,1.926857 -2.194476,1.873333 -2.67619,5.031237 h 16.217711 q -0.428191,-3.104381 -2.622666,-5.031237 -2.194476,-1.926857 -5.459428,-1.926857 z" />
      <path
         id="path894"
         style="stroke-width:0.264583"
         d="m 86.200271,76.625597 q -4.442475,0 -7.975046,-1.873333 -3.532571,-1.873333 -5.512951,-5.191808 -1.980381,-3.372 -1.980381,-7.60038 0,-4.22838 1.980381,-7.546856 1.98038,-3.318475 5.459427,-5.191808 3.532571,-1.873333 8.02857,-1.873333 4.22838,0 7.386284,1.712761 3.211428,1.712762 4.817142,4.92419 l -5.138284,2.997333 q -1.231048,-1.980381 -3.104381,-2.943809 -1.819809,-1.016952 -4.014285,-1.016952 -3.746666,0 -6.208761,2.462094 -2.462094,2.408571 -2.462094,6.47638 0,4.067809 2.408571,6.529904 2.462094,2.408571 6.262284,2.408571 2.194476,0 4.014285,-0.963429 1.873333,-1.016952 3.104381,-2.997332 l 5.138284,2.997332 q -1.659237,3.211428 -4.870665,4.977714 -3.157905,1.712761 -7.332761,1.712761 z" />
      <path
         id="path896"
         style="stroke-width:0.264583"
         d="m 116.39188,76.786169 q -4.33543,0 -8.40324,-1.231048 -4.01428,-1.231047 -6.36933,-3.264951 l 2.40857,-5.405904 q 2.30152,1.819809 5.62,2.997333 3.372,1.123999 6.744,1.123999 4.17486,0 6.20876,-1.338095 2.08743,-1.338095 2.08743,-3.53257 0,-1.605714 -1.17753,-2.622667 -1.124,-1.070476 -2.89028,-1.659237 -1.76629,-0.588762 -4.81714,-1.338095 -4.28191,-1.016953 -6.9581,-2.033905 -2.62266,-1.016952 -4.54952,-3.157904 -1.87333,-2.194476 -1.87333,-5.887618 0,-3.10438 1.65924,-5.619999 1.71276,-2.569142 5.08476,-4.067809 3.42552,-1.498666 8.34971,-1.498666 3.42552,0 6.744,0.856381 3.31847,0.85638 5.72704,2.462094 l -2.19447,5.405904 q -2.4621,-1.445142 -5.13829,-2.194476 -2.67619,-0.749333 -5.1918,-0.749333 -4.12134,0 -6.15524,1.391619 -1.98038,1.391619 -1.98038,3.693142 0,1.605714 1.124,2.622666 1.17752,1.016953 2.94381,1.605714 1.76628,0.588762 4.81714,1.338095 4.17485,0.963429 6.85104,2.033905 2.67619,1.016952 4.54953,3.157904 1.92685,2.140952 1.92685,5.78057 0,3.104381 -1.71276,5.619999 -1.65923,2.515619 -5.08476,4.014285 -3.42552,1.498667 -8.34971,1.498667 z" />
      <path
         id="path898"
         style="stroke-width:0.264583"
         d="m 164.03558,47.669222 -13.38095,30.883232 q -1.87334,4.656571 -4.54953,6.529904 -2.67619,1.926857 -6.47638,1.926857 -2.14095,0 -4.22838,-0.69581 -2.08742,-0.695809 -3.42552,-1.926857 l 2.67619,-4.924189 q 0.96343,0.909904 2.248,1.445142 1.3381,0.535238 2.67619,0.535238 1.76629,0 2.89029,-0.909904 1.17752,-0.909905 2.14095,-3.050857 l 0.48171,-1.124 -12.47104,-28.688756 h 6.95809 l 8.992,21.141901 9.04552,-21.141901 z" />
      <path
         id="path900"
         style="stroke-width:0.264583"
         d="m 176.6304,76.625597 q -3.47904,0 -6.79752,-0.909904 -3.31847,-0.909905 -5.29886,-2.301524 l 2.56915,-5.084761 q 1.92685,1.284572 4.60304,2.087429 2.72972,0.749333 5.35238,0.749333 5.99467,0 5.99467,-3.157904 0,-1.498667 -1.55219,-2.087429 -1.49867,-0.588761 -4.87067,-1.123999 -3.53257,-0.535238 -5.78057,-1.231048 -2.19447,-0.695809 -3.85371,-2.408571 -1.60571,-1.766285 -1.60571,-4.870666 0,-4.067808 3.37199,-6.476379 3.42553,-2.462095 9.2061,-2.462095 2.94381,0 5.88762,0.695809 2.94381,0.642286 4.81714,1.766286 l -2.56914,5.084761 q -3.63962,-2.140952 -8.18915,-2.140952 -2.9438,0 -4.49599,0.909904 -1.49867,0.856381 -1.49867,2.301524 0,1.605714 1.60571,2.301523 1.65924,0.642286 5.08476,1.231047 3.42553,0.535238 5.62,1.231048 2.19448,0.695809 3.74667,2.355047 1.60571,1.659238 1.60571,4.710094 0,4.014285 -3.47904,6.422856 -3.47905,2.408571 -9.47372,2.408571 z" />
    </g>
    <path
       id="path853"
       d="m -54.373941,82.1424 h 25.12333 l 4.54358,-7.884451 h 15.9025404"
       style="fill:none;stroke:#4c7295;stroke-width:2.5;stroke-linecap:round;stroke-linejoin:miter;stroke-miterlimit:4;stroke-dasharray:none;stroke-opacity:1" />
    <path
       id="path855"
       d="m -71.612821,60.894472 h 9.08716 l 4.40995,7.884451 h 17.90706 l 4.00904,-6.013564 h 27.3951204"
       style="fill:none;stroke:#4c7295;stroke-width:2.5;stroke-linecap:round;stroke-linejoin:miter;stroke-miterlimit:4;stroke-dasharray:none;stroke-opacity:1" />
    <path
       id="path859"
       d="M -8.8044906,40.565872 H -37.936871 l -5.74629,-7.750815 h -13.36348"
       style="fill:none;stroke:#4c7295;stroke-width:2.5;stroke-linecap:round;stroke-linejoin:miter;stroke-miterlimit:4;stroke-dasharray:none;stroke-opacity:1" />
    <path
       id="path861"
       d="M -8.8044906,51.529295 H -40.609561"
       style="fill:none;stroke:#4c7295;stroke-width:2.5;stroke-linecap:round;stroke-linejoin:miter;stroke-miterlimit:4;stroke-dasharray:none;stroke-opacity:1" />
    <circle
       style="opacity:1;fill:none;fill-opacity:0.548387;stroke:#4c7295;stroke-width:2.5;stroke-linecap:square;stroke-miterlimit:4;stroke-dasharray:none;stroke-opacity:1"
       id="path851-7"
       cx="-78.021904"
       cy="61.161743"
       r="6.3912034" />
    <circle
       style="opacity:1;fill:none;fill-opacity:0.548387;stroke:#4c7295;stroke-width:2.5;stroke-linecap:square;stroke-miterlimit:4;stroke-dasharray:none;stroke-opacity:1"
       id="path851-6"
       cx="-47.285915"
       cy="51.66293"
       r="6.3912034" />
    <circle
       style="opacity:1;fill:none;fill-opacity:0.548387;stroke:#4c7295;stroke-width:2.5;stroke-linecap:square;stroke-miterlimit:4;stroke-dasharray:none;stroke-opacity:1"
       id="path851-4"
       cx="-63.85664"
       cy="32.948689"
       r="6.3912034" />
  </g>
</svg>
